<?xml version="1.0" encoding="utf-8"?>
<!-- Generator: Adobe Illustrator 26.3.1, SVG Export Plug-In . SVG Version: 6.00 Build 0)  -->
<svg version="1.1" id="Layer_1" xmlns="http://www.w3.org/2000/svg" xmlns:xlink="http://www.w3.org/1999/xlink" x="0px" y="0px"
	 viewBox="0 0 318.4 174.8" style="enable-background:new 0 0 318.4 174.8;" xml:space="preserve">
<style type="text/css">
	.st0{fill:#009EE3;}
	.st1{fill:#007BAF;}
	.st2{fill:#006CA3;}
	.st3{fill:url(#SVGID_1_);}
	.st4{fill:#0085CD;}
	.st5{fill:#FFFFFF;}
</style>
<g>
	<path class="st0" d="M128.7,106.9V89.2l-4.3,14.9c-0.6,1.9-1.5,2.8-3.5,2.8c-1.9,0-3-0.9-3.5-2.7l-4.3-15V107h-5.3V87.4
		c0-2.3,1.9-3.8,4.7-3.8c2.9,0,4.2,1.3,4.8,3.6l3.6,13.1l3.8-13.1c0.7-2.4,2.1-3.6,4.8-3.6c3,0,4.6,1.3,4.6,3.8V107L128.7,106.9
		L128.7,106.9z"/>
	<path class="st0" d="M154.2,89.3V109c0,2.6-0.6,4.5-4.9,4.5h-11.7v-4h10c1.2,0,1.6-0.4,1.6-1.4v-1.3h-6.9c-3.5,0-4.7-1.9-4.7-4.2
		V89.3h5.2v12.1c0,1.3,0.6,1.4,1.5,1.4h4.7V89.3H154.2z"/>
	<path class="st1" d="M177,101.8c0,3.5-2.1,5.1-5.9,5.1h-7.4c-3.9,0-6-1.6-6-5.1V89.2c0-3.5,1.5-5.1,5.8-5.1h7.6
		c4.4,0,5.9,1.6,5.9,5.1L177,101.8L177,101.8z M165.4,88.3c-1.6,0-1.8,0.3-1.8,1.8v10.7c0,1.3,0.4,1.7,1.8,1.7h3.8
		c1.6,0,1.8-0.4,1.8-1.7V90.2c0-1.4-0.3-1.8-1.8-1.8L165.4,88.3L165.4,88.3z"/>
	<path class="st1" d="M190.4,88.3v18.6h-5.9V88.3h-5.7v-4.4H196v4.4H190.4z"/>
	<path class="st1" d="M209.3,101.8h-7.9l-1.6,5.1h-6.1l7.2-20c0.8-2.3,1.9-3.1,4.4-3.1c2.3,0,3.6,0.8,4.4,3.1l7.2,20h-6L209.3,101.8
		z M202.3,97.7h6l-3-8.7L202.3,97.7z"/>
	<path class="st0" d="M218.4,102.9h8.3c1.1,0,1.2-0.2,1.2-0.9v-1.1c0-0.7-0.2-0.9-1.2-0.9h-4c-3.4,0-4.5-1.1-4.5-3.6v-3.3
		c0-2.5,1.3-3.7,4.4-3.7h10.1v4h-8.3c-1,0-1.1,0.2-1.1,0.9v0.9c0,0.8,0.2,1,1.1,1h4.4c2.9,0,4.2,0.9,4.2,3.2v3.9
		c0,2.2-1,3.6-4.2,3.6h-10.4V102.9z"/>
	<path class="st0" d="M237.6,103.2c1.1,0,2,0.8,2,2s-0.9,2-2,2s-2-0.8-2-2C235.5,103.9,236.4,103.2,237.6,103.2z"/>
	<path class="st0" d="M251.9,106.9h-6.4c-2.4,0-3.4-1.1-3.4-3v-6.6c0-2.1,1.3-3.1,3.4-3.1h6.4v2.9H247c-0.9,0-1,0.3-1,1.1v4.9
		c0,0.8,0.2,0.9,1,0.9h5v2.9C252,106.9,251.9,106.9,251.9,106.9z"/>
	<path class="st0" d="M266.2,103.9c0,1.8-1,3-3.3,3h-5.5c-2.4,0-3.4-1.1-3.4-3v-6.6c0-2.1,1.3-3.1,3.4-3.1h5.4
		c2.2,0,3.3,1.1,3.3,3.1L266.2,103.9L266.2,103.9z M262.4,98.2c0-0.8-0.1-1.1-1-1.1h-2.6c-0.9,0-1,0.3-1,1.1v4.9
		c0,0.8,0.2,0.9,1,0.9h2.6c0.9,0,1-0.2,1-0.9V98.2z"/>
	<path class="st0" d="M283.1,106.9v-8.8c0-0.7-0.1-1.1-1.1-1.1h-1.2c-0.9,0-1.1,0.2-1.1,1.1v8.7H276V98c0-0.7-0.3-1-1.1-1h-1.2
		c-0.9,0-1.1,0.2-1.1,1.1v8.8h-3.8v-9.6c0-2,1.2-3.1,3.4-3.1h3.3c1.8,0,2.3,1.2,2.4,1.3c0-0.1,0.6-1.3,2.4-1.3h3.3
		c2.2,0,3.4,1,3.4,3.1v9.6C286.9,106.9,283.1,106.9,283.1,106.9z"/>
	<polygon class="st2" points="38.4,79.9 46.8,79.9 46.8,106.9 38.4,106.9 	"/>
	
		<linearGradient id="SVGID_1_" gradientUnits="userSpaceOnUse" x1="39" y1="900.55" x2="89.48" y2="900.55" gradientTransform="matrix(1 0 0 1 0 -840)">
		<stop  offset="0" style="stop-color:#009EE3"/>
		<stop  offset="0.2989" style="stop-color:#00689F"/>
		<stop  offset="0.6955" style="stop-color:#0085CD"/>
		<stop  offset="1" style="stop-color:#AFDFF9"/>
	</linearGradient>
	<path class="st3" d="M44.8,68.7l8.4-5.1c0-0.2-0.1-0.5-0.1-0.8c0-2,1.6-3.6,3.6-3.6c1.9,0,3.5,1.5,3.6,3.4l7.8,2.4
		c0.7-0.9,1.7-1.5,2.9-1.5c0.5,0,0.9,0.1,1.3,0.2l10.6-12.4c-0.3-0.5-0.5-1.1-0.5-1.8c0-2,1.6-3.6,3.6-3.6s3.6,1.6,3.6,3.6
		S88,53.1,86,53.1c-0.5,0-0.9-0.1-1.3-0.2L74,65.4c0.3,0.5,0.5,1.1,0.5,1.8c0,2-1.6,3.6-3.6,3.6c-1.9,0-3.5-1.5-3.6-3.4L59.5,65
		c-0.7,0.9-1.7,1.5-2.9,1.5c-0.9,0-1.7-0.3-2.3-0.8l-8.4,5.1c0,0.2,0.1,0.5,0.1,0.8c0,2-1.6,3.6-3.6,3.6S39,73.3,39,71.4
		s1.6-3.6,3.6-3.6C43.4,67.8,44.2,68.2,44.8,68.7L44.8,68.7z"/>
	<path class="st4" d="M66.9,75.8H75v21.7c0.9,6.2,7.7,6.6,10.2,1.1c5.7-12.2,2.9-26.7-7-35.9l5.6-6.5c0.3,0.2,0.5,0.5,0.8,0.7
		c12.4,11.9,15.6,30.5,7.9,45.7c-2.6,5.2-9.4,10-15.3,8.4c-8.5-2.2-10.3-7.7-10.3-13.5L66.9,75.8L66.9,75.8z"/>
	<path class="st0" d="M74.2,59.5c-10-6.5-23-6.9-33.3-0.5c-11.7,7.2-17.2,21.2-13.7,34.5c3.6,13.3,15.4,22.6,29.2,23H287v-4.9
		l15.5,8.6L287,129v-4.8c-0.2,0-230.5,0-230.7,0c-17.2-0.5-32.1-12.3-36.5-29.1c-4.5-16.9,2.9-34.8,18-43.7c13.3-7.8,29.6-7,42,1.5
		L74.2,59.5L74.2,59.5z"/>
	<polygon class="st0" points="52.5,70.7 60.9,70.7 60.9,97.3 52.5,97.3 	"/>
</g>
</svg>
